<svg width="965" height="637" viewBox="0 0 965 637" fill="none" xmlns="http://www.w3.org/2000/svg">
<path d="M965 635.839H55.5C55.5 635.839 67.5001 588.339 158 567.839C248 550.339 280 549.763 333 509.339C386 468.915 378.32 387.339 386 344.339C462 -81.161 965 7.83911 965 7.83911V635.839Z" fill="url(#paint0_linear_502_527)"/>
<path d="M825 27.0967C825 68.5181 858.579 102.097 900 102.097C927.785 102.097 952.04 86.9881 965 64.5385V7.59673C965 7.59673 923.967 1.95664 897.5 0.596729C871.369 -0.745911 830.5 0.596729 830.5 0.596729C830.5 0.596729 827.54 7.01891 826.5 11.5967C825.191 17.3596 825 27.0967 825 27.0967Z" fill="#FFAC30"/>
<path d="M836 25.0445C836 63.181 866.94 94.0967 905.107 94.0967C930.709 94.0967 953.059 80.1863 965 59.517V7.09095C965 7.09095 927.191 1.89815 902.804 0.646085C878.726 -0.590077 841.068 0.646085 841.068 0.646085C841.068 0.646085 838.34 6.55896 837.382 10.7737C836.176 16.0796 836 25.0445 836 25.0445Z" fill="#FFB930"/>
<path d="M848 22.6559C848 57.141 876.062 85.0967 910.679 85.0967C933.899 85.0967 954.17 72.5181 965 53.8278V6.42129C965 6.42129 930.708 1.72567 908.589 0.593482C886.752 -0.524324 852.596 0.593482 852.596 0.593482C852.596 0.593482 850.123 5.94023 849.254 9.75146C848.16 14.5493 848 22.6559 848 22.6559Z" fill="#FFC530"/>
<path d="M669.5 612.097H965V583.097H183H111.5C111.5 583.097 98 589.597 89 596.097C80 602.597 70 612.097 70 612.097H275.5V636.097H309V612.097H636.5V636.097H669.5V612.097Z" fill="#095B68"/>
<path d="M484.101 539.881L478 548.597H525.068V565.158C525.068 566.901 531.94 570.821 537.27 572.131C541.898 573.267 549.473 572.131 549.473 572.131C549.473 572.131 549.473 548.597 572.135 548.597C594.797 548.597 594.797 572.131 594.797 572.131H695.906C695.906 572.131 693.291 548.597 717.696 548.597C742.102 548.597 742.102 572.131 742.102 572.131H755.176C755.176 572.131 759.534 552.42 748.203 538.137C739.905 527.678 722.812 528.435 715.081 520.705C689.804 495.428 679.345 484.097 668.014 484.097H543.372L532.912 505.016H645.352V488.455L695.906 523.32L639.25 554.698V539.881H484.101Z" fill="#FA1500" stroke="black" stroke-width="0.5"/>
<path d="M502.405 522.448L511.122 510.245H650.581V498.914L685.446 522.448H502.405Z" fill="#1AD2D4"/>
<path d="M544.457 512.292C543.411 512.686 542.602 513.298 542.029 514.129C541.464 514.952 541.181 515.969 541.181 517.179C541.181 517.638 541.231 518.003 541.331 518.275C541.36 518.368 541.396 518.451 541.438 518.522C541.467 518.572 541.481 518.622 541.481 518.673C540.687 518.673 540.106 518.515 539.741 518.2C539.333 517.856 539.129 517.301 539.129 516.535C539.129 516.055 539.233 515.582 539.44 515.117C539.648 514.644 539.942 514.19 540.321 513.753C540.679 513.337 541.105 512.951 541.6 512.593C542.101 512.227 542.642 511.912 543.222 511.647C544.439 511.096 545.649 510.82 546.853 510.82C547.182 510.82 547.476 510.834 547.733 510.863L547.927 524.398L552.557 510.927H554.093L547.98 527.32H544.812L544.457 512.292ZM556.209 515.128C555.973 515.128 555.747 515.085 555.532 514.999C555.317 514.906 555.131 514.78 554.974 514.623C554.816 514.472 554.691 514.29 554.598 514.075C554.512 513.86 554.469 513.635 554.469 513.398C554.469 513.162 554.512 512.936 554.598 512.721C554.691 512.507 554.816 512.317 554.974 512.152C555.131 511.987 555.317 511.862 555.532 511.776C555.747 511.683 555.973 511.636 556.209 511.636C556.445 511.636 556.671 511.683 556.886 511.776C557.101 511.862 557.29 511.987 557.455 512.152C557.62 512.317 557.745 512.507 557.831 512.721C557.924 512.936 557.971 513.162 557.971 513.398C557.971 513.635 557.924 513.86 557.831 514.075C557.745 514.29 557.62 514.472 557.455 514.623C557.29 514.78 557.101 514.906 556.886 514.999C556.671 515.085 556.445 515.128 556.209 515.128ZM554.716 527.449C554.014 527.449 553.459 527.241 553.051 526.826C552.592 526.368 552.363 525.698 552.363 524.817C552.363 524.402 552.421 523.922 552.535 523.378L554.028 516.32H557.197L555.618 523.797C555.561 523.983 555.532 524.219 555.532 524.506C555.532 524.806 555.6 525.018 555.736 525.139C555.88 525.261 556.109 525.322 556.424 525.322C556.639 525.322 556.846 525.275 557.047 525.182C557.255 525.082 557.444 524.946 557.616 524.774C557.967 524.423 558.232 523.958 558.411 523.378H559.335C558.941 524.488 558.447 525.372 557.853 526.031C557.351 526.568 556.785 526.955 556.155 527.191C555.697 527.363 555.217 527.449 554.716 527.449ZM561.064 527.449C560.227 527.449 559.55 527.188 559.034 526.665C558.433 526.049 558.132 525.132 558.132 523.915C558.132 523.399 558.186 522.855 558.293 522.282C558.393 521.709 558.544 521.143 558.744 520.585C559.202 519.324 559.829 518.307 560.624 517.534C561.541 516.653 562.597 516.213 563.793 516.213C564.387 516.213 564.831 516.316 565.125 516.524C565.426 516.725 565.576 516.993 565.576 517.33V517.491L565.812 516.32H568.981L567.402 523.797C567.338 524.011 567.306 524.248 567.306 524.506C567.306 525.136 567.606 525.451 568.208 525.451C568.609 525.451 568.974 525.247 569.304 524.839C569.583 524.495 569.812 524.008 569.991 523.378H570.915C570.521 524.495 570.045 525.379 569.486 526.031C569.014 526.568 568.48 526.955 567.886 527.191C567.449 527.363 566.987 527.449 566.5 527.449C565.877 527.449 565.379 527.281 565.007 526.944C564.642 526.6 564.42 526.095 564.341 525.429C563.925 526.017 563.489 526.475 563.03 526.804C562.443 527.234 561.788 527.449 561.064 527.449ZM562.493 525.322C562.658 525.322 562.83 525.279 563.009 525.193C563.195 525.107 563.374 524.985 563.546 524.828C563.933 524.455 564.19 523.972 564.319 523.378L565.372 518.415C565.372 518.343 565.354 518.261 565.318 518.168C565.29 518.067 565.247 517.974 565.189 517.888C565.018 517.681 564.778 517.577 564.47 517.577C564.176 517.577 563.89 517.674 563.61 517.867C563.338 518.06 563.08 518.329 562.837 518.673C562.407 519.296 562.053 520.108 561.773 521.111C561.645 521.555 561.548 521.996 561.483 522.432C561.419 522.862 561.387 523.252 561.387 523.603C561.387 524.334 561.523 524.828 561.795 525.086C561.888 525.186 561.992 525.25 562.106 525.279C562.221 525.308 562.35 525.322 562.493 525.322ZM573.504 515.106C573.268 515.106 573.042 515.063 572.827 514.977C572.612 514.884 572.426 514.759 572.269 514.601C572.111 514.451 571.986 514.268 571.893 514.053C571.807 513.839 571.764 513.613 571.764 513.377C571.764 513.14 571.807 512.915 571.893 512.7C571.986 512.478 572.111 512.288 572.269 512.131C572.426 511.973 572.612 511.848 572.827 511.755C573.042 511.662 573.268 511.615 573.504 511.615C573.74 511.615 573.966 511.662 574.181 511.755C574.396 511.848 574.582 511.973 574.739 512.131C574.897 512.288 575.022 512.478 575.115 512.7C575.208 512.915 575.255 513.14 575.255 513.377C575.255 513.613 575.208 513.839 575.115 514.053C575.022 514.261 574.897 514.444 574.739 514.601C574.582 514.759 574.396 514.884 574.181 514.977C573.966 515.063 573.74 515.106 573.504 515.106ZM568.025 532.82C567.331 532.82 566.754 532.641 566.296 532.283C566.06 532.104 565.877 531.878 565.748 531.606C565.619 531.341 565.555 531.033 565.555 530.682C565.555 529.859 565.949 529.15 566.736 528.555C567.316 528.111 568.126 527.728 569.164 527.406L571.517 516.32H574.686L572.505 526.525C573.2 526.296 573.755 525.952 574.17 525.494C574.614 525.007 574.986 524.302 575.287 523.378H576.211C575.817 524.681 575.23 525.687 574.449 526.396C573.869 526.919 573.157 527.284 572.312 527.492L571.979 529.082C571.699 530.478 571.144 531.495 570.313 532.133C569.705 532.591 568.942 532.82 568.025 532.82ZM567.521 531.101C567.75 531.101 567.982 530.94 568.219 530.618C568.462 530.303 568.652 529.812 568.788 529.146L568.928 528.512C568.247 528.77 567.746 529.024 567.424 529.275C566.987 529.605 566.769 529.973 566.769 530.382C566.769 530.575 566.829 530.736 566.951 530.865C567.094 531.023 567.284 531.101 567.521 531.101ZM577.93 527.449C577.092 527.449 576.415 527.188 575.899 526.665C575.298 526.049 574.997 525.132 574.997 523.915C574.997 523.399 575.051 522.855 575.158 522.282C575.258 521.709 575.409 521.143 575.609 520.585C576.068 519.324 576.694 518.307 577.489 517.534C578.406 516.653 579.462 516.213 580.658 516.213C581.253 516.213 581.697 516.316 581.99 516.524C582.291 516.725 582.441 516.993 582.441 517.33V517.491L582.678 516.32H585.847L584.268 523.797C584.203 524.011 584.171 524.248 584.171 524.506C584.171 525.136 584.472 525.451 585.073 525.451C585.474 525.451 585.84 525.247 586.169 524.839C586.448 524.495 586.677 524.008 586.856 523.378H587.78C587.386 524.495 586.91 525.379 586.352 526.031C585.879 526.568 585.345 526.955 584.751 527.191C584.314 527.363 583.852 527.449 583.365 527.449C582.742 527.449 582.244 527.281 581.872 526.944C581.507 526.6 581.285 526.095 581.206 525.429C580.791 526.017 580.354 526.475 579.896 526.804C579.308 527.234 578.653 527.449 577.93 527.449ZM579.358 525.322C579.523 525.322 579.695 525.279 579.874 525.193C580.06 525.107 580.239 524.985 580.411 524.828C580.798 524.455 581.056 523.972 581.185 523.378L582.237 518.415C582.237 518.343 582.219 518.261 582.184 518.168C582.155 518.067 582.112 517.974 582.055 517.888C581.883 517.681 581.643 517.577 581.335 517.577C581.041 517.577 580.755 517.674 580.476 517.867C580.203 518.06 579.946 518.329 579.702 518.673C579.272 519.296 578.918 520.108 578.639 521.111C578.51 521.555 578.413 521.996 578.349 522.432C578.284 522.862 578.252 523.252 578.252 523.603C578.252 524.334 578.388 524.828 578.66 525.086C578.753 525.186 578.857 525.25 578.972 525.279C579.086 525.308 579.215 525.322 579.358 525.322ZM595.386 527.696C594.777 527.696 594.297 527.592 593.946 527.385C593.452 527.098 593.205 526.658 593.205 526.063C593.205 525.669 593.298 525.243 593.484 524.785C593.757 525.079 594.007 525.286 594.236 525.408C594.465 525.523 594.709 525.58 594.967 525.58C595.697 525.58 596.259 525.129 596.653 524.226C596.818 523.861 596.94 523.449 597.019 522.991C597.097 522.525 597.137 522.071 597.137 521.627C597.137 520.782 596.99 520.123 596.696 519.65C596.345 519.099 595.798 518.823 595.053 518.823C594.659 518.823 594.322 518.848 594.043 518.898L592.238 527.32H589.069L592.056 513.323L595.311 512.893L594.279 517.77H594.408C594.831 517.77 595.235 517.666 595.622 517.459C596.009 517.251 596.349 516.968 596.643 516.61C596.929 516.259 597.155 515.872 597.319 515.45C597.491 515.027 597.577 514.612 597.577 514.204C597.577 513.889 597.52 513.592 597.405 513.312C597.298 513.026 597.133 512.775 596.911 512.56C596.403 512.073 595.658 511.83 594.677 511.83C593.774 511.83 592.919 512.023 592.109 512.41C591.207 512.847 590.516 513.438 590.036 514.182C589.463 515.049 589.177 516.048 589.177 517.179C589.177 517.652 589.23 518.017 589.338 518.275C589.367 518.368 589.402 518.451 589.445 518.522C589.474 518.572 589.488 518.622 589.488 518.673C588.708 518.673 588.12 518.519 587.727 518.211C587.333 517.896 587.136 517.376 587.136 516.653C587.136 515.65 587.519 514.694 588.285 513.785C588.643 513.355 589.069 512.961 589.563 512.603C590.065 512.238 590.613 511.923 591.207 511.658C592.46 511.099 593.764 510.82 595.117 510.82C596.628 510.82 597.813 511.178 598.673 511.894C599.045 512.209 599.325 512.578 599.511 513.001C599.704 513.416 599.801 513.857 599.801 514.322C599.801 515.017 599.615 515.661 599.242 516.256C598.827 516.914 598.279 517.434 597.599 517.813C598.479 517.971 599.149 518.397 599.607 519.092C600.001 519.7 600.198 520.456 600.198 521.358C600.198 521.731 600.162 522.142 600.091 522.594C600.019 523.045 599.912 523.492 599.769 523.936C599.418 525.039 598.92 525.902 598.275 526.525C597.473 527.306 596.51 527.696 595.386 527.696ZM603.625 527.449C602.787 527.449 602.11 527.188 601.595 526.665C600.993 526.049 600.692 525.132 600.692 523.915C600.692 523.399 600.746 522.855 600.854 522.282C600.954 521.709 601.104 521.143 601.305 520.585C601.763 519.324 602.39 518.307 603.185 517.534C604.101 516.653 605.158 516.213 606.354 516.213C606.948 516.213 607.392 516.316 607.686 516.524C607.986 516.725 608.137 516.993 608.137 517.33V517.491L608.373 516.32H611.542L609.963 523.797C609.898 524.011 609.866 524.248 609.866 524.506C609.866 525.136 610.167 525.451 610.769 525.451C611.17 525.451 611.535 525.247 611.864 524.839C612.144 524.495 612.373 524.008 612.552 523.378H613.476C613.082 524.495 612.605 525.379 612.047 526.031C611.574 526.568 611.041 526.955 610.446 527.191C610.009 527.363 609.548 527.449 609.061 527.449C608.438 527.449 607.94 527.281 607.567 526.944C607.202 526.6 606.98 526.095 606.901 525.429C606.486 526.017 606.049 526.475 605.591 526.804C605.004 527.234 604.348 527.449 603.625 527.449ZM605.054 525.322C605.218 525.322 605.39 525.279 605.569 525.193C605.756 525.107 605.935 524.985 606.106 524.828C606.493 524.455 606.751 523.972 606.88 523.378L607.933 518.415C607.933 518.343 607.915 518.261 607.879 518.168C607.85 518.067 607.807 517.974 607.75 517.888C607.578 517.681 607.338 517.577 607.03 517.577C606.737 517.577 606.45 517.674 606.171 517.867C605.899 518.06 605.641 518.329 605.397 518.673C604.968 519.296 604.613 520.108 604.334 521.111C604.205 521.555 604.108 521.996 604.044 522.432C603.979 522.862 603.947 523.252 603.947 523.603C603.947 524.334 604.083 524.828 604.355 525.086C604.449 525.186 604.552 525.25 604.667 525.279C604.782 525.308 604.91 525.322 605.054 525.322ZM614.056 516.32H617.225L616.945 517.684C617.447 517.24 617.855 516.925 618.17 516.739C618.657 516.46 619.133 516.32 619.599 516.32C620.071 516.32 620.451 516.488 620.737 516.825C620.866 516.975 620.963 517.151 621.027 517.351C621.092 517.545 621.124 517.752 621.124 517.974C621.124 518.175 621.092 518.368 621.027 518.554C620.963 518.741 620.866 518.909 620.737 519.059C620.594 519.217 620.419 519.342 620.211 519.435C620.01 519.528 619.785 519.575 619.534 519.575C619.341 519.575 619.187 519.543 619.072 519.478C618.958 519.414 618.868 519.321 618.804 519.199C618.746 519.077 618.707 518.959 618.686 518.844C618.621 518.537 618.557 518.332 618.492 518.232C618.442 518.161 618.363 518.125 618.256 518.125C617.948 518.125 617.687 518.189 617.472 518.318C617.257 518.447 616.985 518.662 616.655 518.963L614.894 527.32H611.725L614.056 516.32ZM623.477 527.449C622.639 527.449 621.962 527.188 621.446 526.665C620.845 526.049 620.544 525.132 620.544 523.915C620.544 523.399 620.598 522.855 620.705 522.282C620.805 521.709 620.956 521.143 621.156 520.585C621.615 519.324 622.241 518.307 623.036 517.534C623.953 516.653 625.009 516.213 626.205 516.213C626.799 516.213 627.243 516.316 627.537 516.524C627.838 516.725 627.988 516.993 627.988 517.33V517.491L628.225 516.32H631.394L629.814 523.797C629.75 524.011 629.718 524.248 629.718 524.506C629.718 525.136 630.019 525.451 630.62 525.451C631.021 525.451 631.386 525.247 631.716 524.839C631.995 524.495 632.224 524.008 632.403 523.378H633.327C632.933 524.495 632.457 525.379 631.898 526.031C631.426 526.568 630.892 526.955 630.298 527.191C629.861 527.363 629.399 527.449 628.912 527.449C628.289 527.449 627.791 527.281 627.419 526.944C627.054 526.6 626.832 526.095 626.753 525.429C626.338 526.017 625.901 526.475 625.442 526.804C624.855 527.234 624.2 527.449 623.477 527.449ZM624.905 525.322C625.07 525.322 625.242 525.279 625.421 525.193C625.607 525.107 625.786 524.985 625.958 524.828C626.345 524.455 626.603 523.972 626.731 523.378L627.784 518.415C627.784 518.343 627.766 518.261 627.73 518.168C627.702 518.067 627.659 517.974 627.602 517.888C627.43 517.681 627.19 517.577 626.882 517.577C626.588 517.577 626.302 517.674 626.022 517.867C625.75 518.06 625.493 518.329 625.249 518.673C624.819 519.296 624.465 520.108 624.186 521.111C624.057 521.555 623.96 521.996 623.896 522.432C623.831 522.862 623.799 523.252 623.799 523.603C623.799 524.334 623.935 524.828 624.207 525.086C624.3 525.186 624.404 525.25 624.519 525.279C624.633 525.308 624.762 525.322 624.905 525.322Z" fill="black"/>
<path d="M589.568 570.387C589.568 575.544 587.329 580.177 583.77 583.369C583.77 583.369 576.471 583.369 572 583.369C567.529 583.369 560.5 583.369 560.5 583.369C556.941 580.177 554.703 575.544 554.703 570.387C554.703 560.76 562.507 552.955 572.135 552.955C581.763 552.955 589.568 560.76 589.568 570.387Z" fill="black"/>
<path d="M735.865 570.753C735.865 575.909 734.059 580.128 730.5 583.32C730.5 583.32 722.971 583.32 718.5 583.32C714.029 583.32 706.5 583.32 706.5 583.32C702.941 580.128 701 575.909 701 570.753C701 561.125 708.805 553.32 718.432 553.32C728.06 553.32 735.865 561.125 735.865 570.753Z" fill="black"/>
<circle cx="572.136" cy="570.387" r="8.71623" fill="white"/>
<circle cx="718.567" cy="570.387" r="8.71623" fill="white"/>
<path d="M0 635.839H55.5C55.5 635.839 64 604.339 113.5 582.339C163 560.339 213 566.339 286 537.839C359 509.339 371 450.839 371 450.839C371 450.839 350.5 520.339 245.5 537.839C140.5 555.339 80.0004 549.339 40.5 576.839C0.999634 604.339 0 635.839 0 635.839Z" fill="#4EAD45"/>
<defs>
<linearGradient id="paint0_linear_502_527" x1="860.5" y1="48.0967" x2="464" y2="617.097" gradientUnits="userSpaceOnUse">
<stop stop-color="#66DDFF"/>
<stop offset="0.480208" stop-color="#8FE6FF"/>
<stop offset="1" stop-color="#B3EEFF"/>
</linearGradient>
</defs>
</svg>
